<svg xmlns="http://www.w3.org/2000/svg" width="1700" height="1200" viewBox="0 0 1700 1200">
<defs>
<marker id="arrow" markerWidth="10" markerHeight="10" refX="8" refY="3" orient="auto">
<path d="M0,0 L0,6 L9,3 z" fill="#2563eb"/>
</marker>
</defs>
<rect x="0" y="0" width="1700" height="1200" fill="#f1f5f9"/>
<text x="40" y="52" font-family="Arial, Helvetica, sans-serif" font-size="34" font-weight="700" fill="#0f172a">OpenVPN Deployment: Design and Operations Workflow</text>
<text x="40" y="84" font-family="Arial, Helvetica, sans-serif" font-size="16" fill="#475569">High-level architecture and end-to-end operational flow for this repository</text>
<rect x="30" y="120" width="1640" height="430" rx="14" ry="14" fill="#e2e8f0" stroke="#94a3b8" stroke-width="2"/>
<text x="50" y="156" font-family="Arial, Helvetica, sans-serif" font-size="24" font-weight="700" fill="#0f172a">A) System Design</text>
<rect x="60" y="190" rx="10" ry="10" width="240" height="120" fill="#dcfce7" stroke="#15803d" stroke-width="2" />
<text x="74" y="218" font-family="Arial, Helvetica, sans-serif" font-size="18" font-weight="700" fill="#0f172a">Operator Device</text>
<text x="74" y="242" font-family="Arial, Helvetica, sans-serif" font-size="13" fill="#334155">vpn.sh / vpn.ps1 / vpn.cmd</text>
<rect x="330" y="190" rx="10" ry="10" width="230" height="120" fill="#dbeafe" stroke="#1d4ed8" stroke-width="2" />
<text x="344" y="218" font-family="Arial, Helvetica, sans-serif" font-size="18" font-weight="700" fill="#0f172a">Client Profiles</text>
<text x="344" y="242" font-family="Arial, Helvetica, sans-serif" font-size="13" fill="#334155">clients/*.ovpn</text>
<rect x="590" y="170" rx="10" ry="10" width="300" height="170" fill="#fee2e2" stroke="#b91c1c" stroke-width="2" />
<text x="604" y="198" font-family="Arial, Helvetica, sans-serif" font-size="18" font-weight="700" fill="#0f172a">OpenVPN EC2 Server</text>
<text x="604" y="222" font-family="Arial, Helvetica, sans-serif" font-size="13" fill="#334155">TCP 443 (default), UDP 443</text>
<rect x="920" y="170" rx="10" ry="10" width="300" height="170" fill="#fef3c7" stroke="#b45309" stroke-width="2" />
<text x="934" y="198" font-family="Arial, Helvetica, sans-serif" font-size="18" font-weight="700" fill="#0f172a">Telemetry + Metadata</text>
<text x="934" y="222" font-family="Arial, Helvetica, sans-serif" font-size="13" fill="#334155">status-tcp/udp logs + device_hints</text>
<rect x="1250" y="170" rx="10" ry="10" width="360" height="170" fill="#ede9fe" stroke="#6d28d9" stroke-width="2" />
<text x="1264" y="198" font-family="Arial, Helvetica, sans-serif" font-size="18" font-weight="700" fill="#0f172a">Portal Service</text>
<text x="1264" y="222" font-family="Arial, Helvetica, sans-serif" font-size="13" fill="#334155">openvpn_portal app + vpn-portal-phase1</text>
<line x1="300" y1="250" x2="330" y2="250" style="stroke:#2563eb;stroke-width:3;fill:none;marker-end:url(#arrow)" />
<text x="315.0" y="242.0" text-anchor="middle" font-family="Arial, Helvetica, sans-serif" font-size="12" fill="#1d4ed8">uses</text>
<line x1="560" y1="250" x2="590" y2="250" style="stroke:#2563eb;stroke-width:3;fill:none;marker-end:url(#arrow)" />
<text x="575.0" y="242.0" text-anchor="middle" font-family="Arial, Helvetica, sans-serif" font-size="12" fill="#1d4ed8">connects</text>
<line x1="890" y1="250" x2="920" y2="250" style="stroke:#2563eb;stroke-width:3;fill:none;marker-end:url(#arrow)" />
<text x="905.0" y="242.0" text-anchor="middle" font-family="Arial, Helvetica, sans-serif" font-size="12" fill="#1d4ed8">writes</text>
<line x1="1220" y1="250" x2="1250" y2="250" style="stroke:#2563eb;stroke-width:3;fill:none;marker-end:url(#arrow)" />
<text x="1235.0" y="242.0" text-anchor="middle" font-family="Arial, Helvetica, sans-serif" font-size="12" fill="#1d4ed8">reads</text>
<rect x="130" y="360" rx="10" ry="10" width="350" height="150" fill="#cffafe" stroke="#0e7490" stroke-width="2" />
<text x="144" y="388" font-family="Arial, Helvetica, sans-serif" font-size="18" font-weight="700" fill="#0f172a">Terraform (infrastructure/)</text>
<text x="144" y="412" font-family="Arial, Helvetica, sans-serif" font-size="13" fill="#334155">S3 remote backend + AWS resources</text>
<rect x="540" y="360" rx="10" ry="10" width="350" height="150" fill="#fce7f3" stroke="#9d174d" stroke-width="2" />
<text x="554" y="388" font-family="Arial, Helvetica, sans-serif" font-size="18" font-weight="700" fill="#0f172a">Ops Scripts (scripts/)</text>
<text x="554" y="412" font-family="Arial, Helvetica, sans-serif" font-size="13" fill="#334155">setup, reconcile, rotate, hooks</text>
<rect x="950" y="360" rx="10" ry="10" width="390" height="150" fill="#ecfccb" stroke="#4d7c0f" stroke-width="2" />
<text x="964" y="388" font-family="Arial, Helvetica, sans-serif" font-size="18" font-weight="700" fill="#0f172a">AWS SSM Control Plane</text>
<text x="964" y="412" font-family="Arial, Helvetica, sans-serif" font-size="13" fill="#334155">session + send-command operations</text>
<line x1="480" y1="435" x2="540" y2="435" style="stroke:#2563eb;stroke-width:3;fill:none;marker-end:url(#arrow)" />
<text x="510.0" y="427.0" text-anchor="middle" font-family="Arial, Helvetica, sans-serif" font-size="12" fill="#1d4ed8">orchestrates</text>
<line x1="890" y1="435" x2="950" y2="435" style="stroke:#2563eb;stroke-width:3;fill:none;marker-end:url(#arrow)" />
<text x="920.0" y="427.0" text-anchor="middle" font-family="Arial, Helvetica, sans-serif" font-size="12" fill="#1d4ed8">executes via</text>
<line x1="1145" y1="360" x2="1080" y2="340" style="stroke:#2563eb;stroke-width:3;fill:none;marker-end:url(#arrow);stroke-dasharray:8 6" />
<text x="1112.5" y="342.0" text-anchor="middle" font-family="Arial, Helvetica, sans-serif" font-size="12" fill="#1d4ed8">operates services</text>
<line x1="1245" y1="510" x2="1400" y2="340" style="stroke:#2563eb;stroke-width:3;fill:none;marker-end:url(#arrow);stroke-dasharray:8 6" />
<text x="1322.5" y="417.0" text-anchor="middle" font-family="Arial, Helvetica, sans-serif" font-size="12" fill="#1d4ed8">service mgmt</text>
<rect x="30" y="580" width="1640" height="560" rx="14" ry="14" fill="#e2e8f0" stroke="#94a3b8" stroke-width="2"/>
<text x="50" y="616" font-family="Arial, Helvetica, sans-serif" font-size="24" font-weight="700" fill="#0f172a">B) Delivery and Operations Workflow</text>
<rect x="70" y="650" rx="10" ry="10" width="235" height="95" fill="#ffffff" stroke="#334155" stroke-width="2" />
<text x="84" y="678" font-family="Arial, Helvetica, sans-serif" font-size="18" font-weight="700" fill="#0f172a">1. Review + Plan</text>
<text x="84" y="702" font-family="Arial, Helvetica, sans-serif" font-size="13" fill="#334155">docs/README -> runbook</text>
<rect x="330" y="650" rx="10" ry="10" width="255" height="95" fill="#ffffff" stroke="#334155" stroke-width="2" />
<text x="344" y="678" font-family="Arial, Helvetica, sans-serif" font-size="18" font-weight="700" fill="#0f172a">2. Terraform Apply</text>
<text x="344" y="702" font-family="Arial, Helvetica, sans-serif" font-size="13" fill="#334155">infrastructure with remote state</text>
<rect x="620" y="650" rx="10" ry="10" width="260" height="95" fill="#ffffff" stroke="#334155" stroke-width="2" />
<text x="634" y="678" font-family="Arial, Helvetica, sans-serif" font-size="18" font-weight="700" fill="#0f172a">3. Bootstrap/Update</text>
<text x="634" y="702" font-family="Arial, Helvetica, sans-serif" font-size="13" fill="#334155">scripts/openvpn_setup.sh via SSM</text>
<rect x="915" y="650" rx="10" ry="10" width="250" height="95" fill="#ffffff" stroke="#334155" stroke-width="2" />
<text x="929" y="678" font-family="Arial, Helvetica, sans-serif" font-size="18" font-weight="700" fill="#0f172a">4. Validate Services</text>
<text x="929" y="702" font-family="Arial, Helvetica, sans-serif" font-size="13" fill="#334155">openvpn + status file mapping</text>
<rect x="1200" y="650" rx="10" ry="10" width="250" height="95" fill="#ffffff" stroke="#334155" stroke-width="2" />
<text x="1214" y="678" font-family="Arial, Helvetica, sans-serif" font-size="18" font-weight="700" fill="#0f172a">5. Client Connect</text>
<text x="1214" y="702" font-family="Arial, Helvetica, sans-serif" font-size="13" fill="#334155">vpn.sh / vpn.ps1 using clients/</text>
<rect x="70" y="810" rx="10" ry="10" width="255" height="95" fill="#ffffff" stroke="#334155" stroke-width="2" />
<text x="84" y="838" font-family="Arial, Helvetica, sans-serif" font-size="18" font-weight="700" fill="#0f172a">6. Portal Observe</text>
<text x="84" y="862" font-family="Arial, Helvetica, sans-serif" font-size="13" fill="#334155">openvpn_portal dashboard</text>
<rect x="360" y="810" rx="10" ry="10" width="255" height="95" fill="#ffffff" stroke="#334155" stroke-width="2" />
<text x="374" y="838" font-family="Arial, Helvetica, sans-serif" font-size="18" font-weight="700" fill="#0f172a">7. Operate Securely</text>
<text x="374" y="862" font-family="Arial, Helvetica, sans-serif" font-size="13" fill="#334155">rotate creds + reconcile service</text>
<rect x="650" y="810" rx="10" ry="10" width="270" height="95" fill="#ffffff" stroke="#334155" stroke-width="2" />
<text x="664" y="838" font-family="Arial, Helvetica, sans-serif" font-size="18" font-weight="700" fill="#0f172a">8. Recover and Persist</text>
<text x="664" y="862" font-family="Arial, Helvetica, sans-serif" font-size="13" fill="#334155">.env backup/restore + runbook</text>
<rect x="955" y="810" rx="10" ry="10" width="300" height="95" fill="#ffffff" stroke="#334155" stroke-width="2" />
<text x="969" y="838" font-family="Arial, Helvetica, sans-serif" font-size="18" font-weight="700" fill="#0f172a">9. Improve Docs + Prompts</text>
<text x="969" y="862" font-family="Arial, Helvetica, sans-serif" font-size="13" fill="#334155">README/docs + .github/prompts</text>
<line x1="305" y1="698" x2="330" y2="698" style="stroke:#2563eb;stroke-width:3;fill:none;marker-end:url(#arrow)" />
<line x1="585" y1="698" x2="620" y2="698" style="stroke:#2563eb;stroke-width:3;fill:none;marker-end:url(#arrow)" />
<line x1="880" y1="698" x2="915" y2="698" style="stroke:#2563eb;stroke-width:3;fill:none;marker-end:url(#arrow)" />
<line x1="1165" y1="698" x2="1200" y2="698" style="stroke:#2563eb;stroke-width:3;fill:none;marker-end:url(#arrow)" />
<line x1="1325" y1="745" x2="195" y2="810" style="stroke:#2563eb;stroke-width:3;fill:none;marker-end:url(#arrow)" />
<text x="760.0" y="769.5" text-anchor="middle" font-family="Arial, Helvetica, sans-serif" font-size="12" fill="#1d4ed8">observe</text>
<line x1="325" y1="858" x2="360" y2="858" style="stroke:#2563eb;stroke-width:3;fill:none;marker-end:url(#arrow)" />
<line x1="615" y1="858" x2="650" y2="858" style="stroke:#2563eb;stroke-width:3;fill:none;marker-end:url(#arrow)" />
<line x1="920" y1="858" x2="955" y2="858" style="stroke:#2563eb;stroke-width:3;fill:none;marker-end:url(#arrow)" />
<line x1="1255" y1="905" x2="185" y2="905" style="stroke:#2563eb;stroke-width:3;fill:none;marker-end:url(#arrow);stroke-dasharray:8 6" />
<text x="720.0" y="897.0" text-anchor="middle" font-family="Arial, Helvetica, sans-serif" font-size="12" fill="#1d4ed8">continuous loop</text>
<text x="50" y="1125" font-family="Arial, Helvetica, sans-serif" font-size="13" fill="#475569">Source of truth: README (high-level), docs/README (hub), docs/OPENVPN_RUNBOOK (deep operations), docs/VPN_SH_GUIDE (client commands).</text>
</svg>