<svg xmlns="http://www.w3.org/2000/svg" width="1640" height="1320" viewBox="0 0 1640 1320" role="img" aria-labelledby="title desc">
  <title id="title">OpenVPN CI/CD Deployment Sequence</title>
  <desc id="desc">Sequence diagram for GitHub Actions deployment to OpenVPN EC2 through AWS SSM with OIDC role assumption and artifact delivery.</desc>
  <defs>
    <marker id="arrow-blue" markerWidth="10" markerHeight="10" refX="9" refY="3" orient="auto">
      <path d="M0,0 L0,6 L9,3 z" fill="#2563eb"/>
    </marker>
    <marker id="arrow-slate" markerWidth="10" markerHeight="10" refX="9" refY="3" orient="auto">
      <path d="M0,0 L0,6 L9,3 z" fill="#64748b"/>
    </marker>
    <filter id="soft-shadow" x="-20%" y="-20%" width="140%" height="140%">
      <feDropShadow dx="0" dy="5" stdDeviation="6" flood-color="#0f172a" flood-opacity="0.12"/>
    </filter>
    <style>
      text { font-family: Arial, Helvetica, sans-serif; fill: #0f172a; }
      .title { font-size: 34px; font-weight: 700; }
      .subtitle { font-size: 16px; fill: #475569; }
      .lane-title { font-size: 14px; font-weight: 700; }
      .msg { font-size: 12px; fill: #1e293b; }
      .note { font-size: 12px; fill: #334155; }
    </style>
  </defs>

  <rect width="1640" height="1320" fill="#f1f5f9"/>
  <text class="title" x="40" y="54">OpenVPN CI/CD Deployment Sequence</text>
  <text class="subtitle" x="40" y="84">Mermaid source: docs/diagrams/openvpn-cicd-ssm-sequence.mmd</text>

  <rect x="30" y="110" width="1580" height="1170" rx="14" ry="14" fill="#e2e8f0" stroke="#94a3b8" stroke-width="2"/>

  <g filter="url(#soft-shadow)">
    <rect x="70" y="140" width="140" height="52" rx="10" ry="10" fill="#dcfce7" stroke="#15803d" stroke-width="2"/>
    <text class="lane-title" x="140" y="168" text-anchor="middle">Developer</text>
    <text class="note" x="140" y="184" text-anchor="middle">Dev</text>

    <rect x="300" y="140" width="140" height="52" rx="10" ry="10" fill="#dbeafe" stroke="#1d4ed8" stroke-width="2"/>
    <text class="lane-title" x="370" y="168" text-anchor="middle">GitHub Actions</text>
    <text class="note" x="370" y="184" text-anchor="middle">GH</text>

    <rect x="530" y="140" width="140" height="52" rx="10" ry="10" fill="#cffafe" stroke="#0e7490" stroke-width="2"/>
    <text class="lane-title" x="600" y="168" text-anchor="middle">AWS STS</text>
    <text class="note" x="600" y="184" text-anchor="middle">STS</text>

    <rect x="760" y="140" width="140" height="52" rx="10" ry="10" fill="#fee2e2" stroke="#b91c1c" stroke-width="2"/>
    <text class="lane-title" x="830" y="168" text-anchor="middle">S3 Bucket</text>
    <text class="note" x="830" y="184" text-anchor="middle">S3</text>

    <rect x="990" y="140" width="140" height="52" rx="10" ry="10" fill="#fef9c3" stroke="#ca8a04" stroke-width="2"/>
    <text class="lane-title" x="1060" y="168" text-anchor="middle">AWS SSM</text>
    <text class="note" x="1060" y="184" text-anchor="middle">SSM</text>

    <rect x="1220" y="140" width="140" height="52" rx="10" ry="10" fill="#ede9fe" stroke="#6d28d9" stroke-width="2"/>
    <text class="lane-title" x="1290" y="168" text-anchor="middle">OpenVPN EC2</text>
    <text class="note" x="1290" y="184" text-anchor="middle">EC2</text>

    <rect x="1450" y="140" width="140" height="52" rx="10" ry="10" fill="#fce7f3" stroke="#be185d" stroke-width="2"/>
    <text class="lane-title" x="1520" y="168" text-anchor="middle">Portal Service</text>
    <text class="note" x="1520" y="184" text-anchor="middle">Portal</text>
  </g>

  <line x1="140" y1="192" x2="140" y2="1240" stroke="#64748b" stroke-width="2" stroke-dasharray="6 6"/>
  <line x1="370" y1="192" x2="370" y2="1240" stroke="#64748b" stroke-width="2" stroke-dasharray="6 6"/>
  <line x1="600" y1="192" x2="600" y2="1240" stroke="#64748b" stroke-width="2" stroke-dasharray="6 6"/>
  <line x1="830" y1="192" x2="830" y2="1240" stroke="#64748b" stroke-width="2" stroke-dasharray="6 6"/>
  <line x1="1060" y1="192" x2="1060" y2="1240" stroke="#64748b" stroke-width="2" stroke-dasharray="6 6"/>
  <line x1="1290" y1="192" x2="1290" y2="1240" stroke="#64748b" stroke-width="2" stroke-dasharray="6 6"/>
  <line x1="1520" y1="192" x2="1520" y2="1240" stroke="#64748b" stroke-width="2" stroke-dasharray="6 6"/>

  <line x1="140" y1="240" x2="370" y2="240" stroke="#2563eb" stroke-width="2.5" marker-end="url(#arrow-blue)"/>
  <rect x="188" y="224" width="136" height="18" rx="6" fill="#f8fafc" opacity="0.95"/>
  <text class="msg" x="256" y="237" text-anchor="middle">1. Push main / dispatch</text>

  <line x1="370" y1="285" x2="370" y2="285" stroke="#2563eb" stroke-width="2.5"/>
  <rect x="290" y="270" width="160" height="18" rx="6" fill="#f8fafc" opacity="0.95"/>
  <text class="msg" x="370" y="283" text-anchor="middle">2. Validate Python/shell/Terraform</text>

  <line x1="370" y1="330" x2="370" y2="330" stroke="#2563eb" stroke-width="2.5"/>
  <rect x="300" y="314" width="140" height="18" rx="6" fill="#f8fafc" opacity="0.95"/>
  <text class="msg" x="370" y="327" text-anchor="middle">3. Package portal artifact</text>

  <line x1="370" y1="375" x2="370" y2="375" stroke="#2563eb" stroke-width="2.5"/>
  <rect x="292" y="359" width="156" height="18" rx="6" fill="#f8fafc" opacity="0.95"/>
  <text class="msg" x="370" y="372" text-anchor="middle">4. Resolve deploy artifact URI</text>

  <line x1="370" y1="420" x2="370" y2="420" stroke="#2563eb" stroke-width="2.5"/>
  <rect x="285" y="404" width="170" height="18" rx="6" fill="#f8fafc" opacity="0.95"/>
  <text class="msg" x="370" y="417" text-anchor="middle">5. Fail if artifact URI empty</text>

  <line x1="370" y1="465" x2="600" y2="465" stroke="#2563eb" stroke-width="2.5" marker-end="url(#arrow-blue)"/>
  <rect x="425" y="449" width="120" height="18" rx="6" fill="#f8fafc" opacity="0.95"/>
  <text class="msg" x="485" y="462" text-anchor="middle">6. Assume role via OIDC</text>

  <line x1="600" y1="510" x2="370" y2="510" stroke="#64748b" stroke-width="2.5" stroke-dasharray="8 6" marker-end="url(#arrow-slate)"/>
  <rect x="430" y="494" width="110" height="18" rx="6" fill="#f8fafc" opacity="0.95"/>
  <text class="msg" x="485" y="507" text-anchor="middle">7. Temporary creds</text>

  <line x1="370" y1="555" x2="830" y2="555" stroke="#2563eb" stroke-width="2.5" marker-end="url(#arrow-blue)"/>
  <rect x="548" y="539" width="104" height="18" rx="6" fill="#f8fafc" opacity="0.95"/>
  <text class="msg" x="600" y="552" text-anchor="middle">8. Upload artifact</text>

  <line x1="370" y1="600" x2="1060" y2="600" stroke="#2563eb" stroke-width="2.5" marker-end="url(#arrow-blue)"/>
  <rect x="662" y="584" width="110" height="18" rx="6" fill="#f8fafc" opacity="0.95"/>
  <text class="msg" x="717" y="597" text-anchor="middle">9. send-command</text>

  <line x1="370" y1="645" x2="1060" y2="645" stroke="#2563eb" stroke-width="2.5" marker-end="url(#arrow-blue)"/>
  <rect x="645" y="629" width="144" height="18" rx="6" fill="#f8fafc" opacity="0.95"/>
  <text class="msg" x="717" y="642" text-anchor="middle">10. Wait command-executed</text>

  <line x1="370" y1="690" x2="1060" y2="690" stroke="#2563eb" stroke-width="2.5" marker-end="url(#arrow-blue)"/>
  <rect x="626" y="674" width="182" height="18" rx="6" fill="#f8fafc" opacity="0.95"/>
  <text class="msg" x="717" y="687" text-anchor="middle">11. Fetch invocation output on failure</text>

  <line x1="1060" y1="735" x2="1290" y2="735" stroke="#2563eb" stroke-width="2.5" marker-end="url(#arrow-blue)"/>
  <rect x="1090" y="719" width="170" height="18" rx="6" fill="#f8fafc" opacity="0.95"/>
  <text class="msg" x="1175" y="732" text-anchor="middle">12. Execute deployment commands</text>

  <line x1="1290" y1="780" x2="830" y2="780" stroke="#2563eb" stroke-width="2.5" marker-end="url(#arrow-blue)"/>
  <rect x="1005" y="764" width="110" height="18" rx="6" fill="#f8fafc" opacity="0.95"/>
  <text class="msg" x="1060" y="777" text-anchor="middle">13. Download artifact</text>

  <line x1="1290" y1="825" x2="1520" y2="825" stroke="#2563eb" stroke-width="2.5" marker-end="url(#arrow-blue)"/>
  <rect x="1318" y="809" width="174" height="18" rx="6" fill="#f8fafc" opacity="0.95"/>
  <text class="msg" x="1405" y="822" text-anchor="middle">14. Restart portal systemd units</text>

  <line x1="1290" y1="870" x2="1290" y2="870" stroke="#2563eb" stroke-width="2.5"/>
  <rect x="1195" y="854" width="190" height="18" rx="6" fill="#f8fafc" opacity="0.95"/>
  <text class="msg" x="1290" y="867" text-anchor="middle">15. Re-apply tunnel isolation rules</text>

  <line x1="1290" y1="915" x2="1290" y2="915" stroke="#2563eb" stroke-width="2.5"/>
  <rect x="1208" y="899" width="164" height="18" rx="6" fill="#f8fafc" opacity="0.95"/>
  <text class="msg" x="1290" y="912" text-anchor="middle">16. Verify OpenVPN guardrails</text>

  <line x1="1290" y1="960" x2="1060" y2="960" stroke="#64748b" stroke-width="2.5" stroke-dasharray="8 6" marker-end="url(#arrow-slate)"/>
  <rect x="1120" y="944" width="110" height="18" rx="6" fill="#f8fafc" opacity="0.95"/>
  <text class="msg" x="1175" y="957" text-anchor="middle">17. Output + status</text>

  <line x1="1060" y1="1005" x2="370" y2="1005" stroke="#64748b" stroke-width="2.5" stroke-dasharray="8 6" marker-end="url(#arrow-slate)"/>
  <rect x="647" y="989" width="140" height="18" rx="6" fill="#f8fafc" opacity="0.95"/>
  <text class="msg" x="717" y="1002" text-anchor="middle">18. Invocation result</text>

  <line x1="370" y1="1050" x2="1290" y2="1050" stroke="#2563eb" stroke-width="2.5" marker-end="url(#arrow-blue)"/>
  <rect x="740" y="1034" width="180" height="18" rx="6" fill="#f8fafc" opacity="0.95"/>
  <text class="msg" x="830" y="1047" text-anchor="middle">19. Health check via SSM output</text>

  <line x1="370" y1="1095" x2="140" y2="1095" stroke="#64748b" stroke-width="2.5" stroke-dasharray="8 6" marker-end="url(#arrow-slate)"/>
  <rect x="184" y="1079" width="142" height="18" rx="6" fill="#f8fafc" opacity="0.95"/>
  <text class="msg" x="255" y="1092" text-anchor="middle">20. Pass / Fail + logs</text>

  <text class="note" x="50" y="1248">Style: flat light theme, consistent with docs/diagrams/openvpn-design-workflow.svg and openvpn-runtime-dataflow.svg</text>
</svg>